Mitt liv som hund AKA My Life as a Dog

In My Life as a Dog, the frequent collision of comedy and drama is breathtakingly real, and Anton Glanzelius is terrific as Ingemar, a smart 12 year old with a philosophical bent. He puts his own misfortunes and those of his terminally ill mother up against greater disasters, reminding us of the theory of relativity in a human dimension. As his mother deteriorates, he's sent to the country to be cared for by his uncle and aunt, where he meets all sorts of crazies and encounters adventures like most 12 year olds.


Director: Lasse Hallström
Country: Sweden
Language: Swedish
Subtitles: English, Portuguese

.............................

Blu-Ray

Screenshots:
 
http://i1238.photobucket.com/albums/ff491/pamis2046/MinhaVida01_zps2e19345e.jpg
 
http://i1238.photobucket.com/albums/ff491/pamis2046/MinhaVida02_zpse6d4d758.jpg
 
http://i1238.photobucket.com/albums/ff491/pamis2046/MinhaVida03_zps26cf58bb.jpg
 
http://i1238.photobucket.com/albums/ff491/pamis2046/MinhaVida05_zpse076ea3f.jpg
 
http://i1238.photobucket.com/albums/ff491/pamis2046/MinhaVida06_zpsf1fed7ac.jpg
 
http://i1238.photobucket.com/albums/ff491/pamis2046/MinhaVida07_zpse335f8ea.jpg
 
http://i1238.photobucket.com/albums/ff491/pamis2046/MinhaVida11_zps8da89d9d.jpg
 
http://i1238.photobucket.com/albums/ff491/pamis2046/MinhaVida12_zps07790eed.jpg



Format version : Version 2 
File size : 4.37 GiB 
Duration : 1h 41mn 
Overall bit rate : 6 141 Kbps 
Encoded date : UTC 2011-09-11 14:51:04 
Writing application : mkvmerge v4.9.1 ('Ich will') built on Jul 11 2011 23:53:15 
Writing library : libebml v1.2.1 + libmatroska v1.1.1 

Video 
ID : 1 
Format : AVC 
Format/Info : Advanced Video Codec 
Format profile : High@L4.1 
Format settings, CABAC : Yes 
Format settings, ReFrames : 5 frames 
Codec ID : V_MPEG4/ISO/AVC 
Duration : 1h 41mn 
Bit rate : 5 499 Kbps 
Width : 1 280 pixels 
Height : 720 pixels 
Display aspect ratio : 16:9 
Frame rate : 23.976 fps 
Color space : YUV 
Chroma subsampling : 4:2:0 
Bit depth : 8 bits 
Scan type : Progressive 
Bits/(Pixel*Frame) : 0.249 
Stream size : 3.83 GiB (88%) 
Writing library : x264 core 116 r2074 2641b9e 
Encoding settings : cabac=1 / ref=5 / deblock=1:0:0 / analyse=0x3:0x133 / me=umh / subme=7 / psy=1 / psy_rd=1.00:0.00 / mixed_ref=1 / me_range=16 / chroma_me=1 / trellis=1 / 8x8dct=1 / cqm=0 / deadzone=21,11 / fast_pskip=1 / chroma_qp_offset=-2 / threads=12 / sliced_threads=0 / nr=0 / decimate=1 / interlaced=0 / bluray_compat=0 / constrained_intra=0 / bframes=3 / b_pyramid=2 / b_adapt=1 / b_bias=0 / direct=1 / weightb=1 / open_gop=0 / weightp=2 / keyint=250 / keyint_min=23 / scenecut=40 / intra_refresh=0 / rc_lookahead=40 / rc=2pass / mbtree=1 / bitrate=5499 / ratetol=1.0 / qcomp=0.60 / qpmin=10 / qpmax=51 / qpstep=4 / cplxblur=20.0 / qblur=0.5 / ip_ratio=1.40 / aq=1:1.00 

Audio 
ID : 2 
Format : AC-3 
Format/Info : Audio Coding 3 
Mode extension : CM (complete main) 
Codec ID : A_AC3 
Duration : 1h 41mn 
Bit rate mode : Constant 
Bit rate : 640 Kbps 
Channel(s) : 1 channel 
Channel positions : Front: C 
Sampling rate : 48.0 KHz 
Bit depth : 16 bits 
Compression mode : Lossy 
Stream size : 467 MiB (10%) 

